HIERARCHY
ROOT Hips
{
	OFFSET 0.000000 0.000000 0.000000
	CHANNELS 6 Xposition Yposition Zposition Xrotation Yrotation Zrotation
	JOINT LeftUpLeg_virtual
	{
		OFFSET 0.000000 0.000000 0.000000
		CHANNELS 3 Xrotation Yrotation Zrotation
		JOINT LeftUpLeg
		{
			OFFSET 11.394100 -6.187798 -0.413800
			CHANNELS 3 Xrotation Yrotation Zrotation
			JOINT LeftLeg
			{
				OFFSET 0.430247 -32.302673 3.732800
				CHANNELS 3 Xrotation Yrotation Zrotation
				JOINT LeftFoot
				{
					OFFSET -0.430247 -48.264931 -6.423300
					CHANNELS 3 Xrotation Yrotation Zrotation
					JOINT LeftToeBase
					{
						OFFSET 4.230900 -16.068199 23.438400
						CHANNELS 3 Xrotation Yrotation Zrotation
						JOINT LeftToe_End
						{
							OFFSET 4.510700 0.695400 19.974600
							CHANNELS 3 Xrotation Yrotation Zrotation
							End Site
							{
								OFFSET 0 0 0
							}
						}
					}
				}
			}
		}
	}
	JOINT RightUpLeg_virtual
	{
		OFFSET 0.000000 0.000000 0.000000
		CHANNELS 3 Xrotation Yrotation Zrotation
		JOINT RightUpLeg
		{
			OFFSET -11.333700 -6.187798 -0.413800
			CHANNELS 3 Xrotation Yrotation Zrotation
			JOINT RightLeg
			{
				OFFSET -0.430392 -32.302628 3.733000
				CHANNELS 3 Xrotation Yrotation Zrotation
				JOINT RightFoot
				{
					OFFSET 0.430392 -48.264973 -6.423500
					CHANNELS 3 Xrotation Yrotation Zrotation
					JOINT RightToeBase
					{
						OFFSET -4.230900 -16.068199 23.438400
						CHANNELS 3 Xrotation Yrotation Zrotation
						JOINT RightToe_End
						{
							OFFSET -4.510700 0.695400 19.974600
							CHANNELS 3 Xrotation Yrotation Zrotation
							End Site
							{
								OFFSET 0 0 0
							}
						}
					}
				}
			}
		}
	}
	JOINT Spine_virtual
	{
		OFFSET 0.000000 0.000000 0.000000
		CHANNELS 3 Xrotation Yrotation Zrotation
		JOINT Spine
		{
			OFFSET -0.002400 12.777504 0.315300
			CHANNELS 3 Xrotation Yrotation Zrotation
			JOINT Spine1
			{
				OFFSET -0.002067 5.816869 0.032633
				CHANNELS 3 Xrotation Yrotation Zrotation
				JOINT Spine1_split
				{
					OFFSET -0.002067 5.816869 0.032633
					CHANNELS 3 Xrotation Yrotation Zrotation
					JOINT Spine2
					{
						OFFSET -0.002067 5.816869 0.032633
						CHANNELS 3 Xrotation Yrotation Zrotation
						JOINT Neck_virtual
						{
							OFFSET 0.000000 0.000000 0.000000
							CHANNELS 3 Xrotation Yrotation Zrotation
							JOINT Neck
							{
								OFFSET -0.003700 21.199493 -0.826900
								CHANNELS 3 Xrotation Yrotation Zrotation
								JOINT Head
								{
									OFFSET 0.000000 20.442200 4.834800
									CHANNELS 3 Xrotation Yrotation Zrotation
									JOINT HeadTop_End
									{
										OFFSET 0.000000 34.668396 4.968400
										CHANNELS 3 Xrotation Yrotation Zrotation
										End Site
										{
											OFFSET 0 0 0
										}
									}
								}
							}
						}
						JOINT LeftShoulder_virtual
						{
							OFFSET 0.000000 0.000000 0.000000
							CHANNELS 3 Xrotation Yrotation Zrotation
							JOINT LeftShoulder
							{
								OFFSET 3.288150 8.794197 -1.372250
								CHANNELS 3 Xrotation Yrotation Zrotation
								JOINT LeftShoulder_split
								{
									OFFSET 3.288150 8.794197 -1.372250
									CHANNELS 3 Xrotation Yrotation Zrotation
									JOINT LeftArm
									{
										OFFSET 11.953299 -2.279007 -0.146200
										CHANNELS 3 Xrotation Yrotation Zrotation
										JOINT LeftForeArm
										{
											OFFSET 18.448900 0.000000 0.000000
											CHANNELS 3 Xrotation Yrotation Zrotation
											JOINT LeftHand
											{
												OFFSET 29.527798 0.000000 0.000000
												CHANNELS 3 Xrotation Yrotation Zrotation
												End Site
												{
													OFFSET 0 0 0
												}
											}
										}
									}
								}
							}
						}
						JOINT RightShoulder_virtual
						{
							OFFSET 0.000000 0.000000 0.000000
							CHANNELS 3 Xrotation Yrotation Zrotation
							JOINT RightShoulder
							{
								OFFSET -3.249400 8.794197 -1.372250
								CHANNELS 3 Xrotation Yrotation Zrotation
								JOINT RightShoulder_split
								{
									OFFSET -3.249400 8.794197 -1.372250
									CHANNELS 3 Xrotation Yrotation Zrotation
									JOINT RightArm
									{
										OFFSET -11.953299 -2.279007 -0.146200
										CHANNELS 3 Xrotation Yrotation Zrotation
										JOINT RightForeArm
										{
											OFFSET -18.448900 0.000000 0.000000
											CHANNELS 3 Xrotation Yrotation Zrotation
											JOINT RightHand
											{
												OFFSET -29.527802 0.000000 0.000000
												CHANNELS 3 Xrotation Yrotation Zrotation
												End Site
												{
													OFFSET 0 0 0
												}
											}
										}
									}
								}
							}
						}
					}
				}
			}
		}
	}
}
MOTION
Frames: 11
Frame Time: 0.03333333
1.444109 86.839050 -1.480022 0.000000 0.000000 0.000000 19.009977 -4.660103 -29.987406 -74.124806 -10.707487 23.648021 56.906425 -10.042262 7.886763 -5.055948 -2.878167 -4.704351 -2.712012 0.077276 -0.614727 0.000000 0.000000 0.000000 19.463418 -3.215006 -31.513420 -33.181578 -30.513645 10.731760 34.546708 -9.828174 -0.346391 -5.231805 -8.481798 8.612942 -2.548375 1.353671 -2.595429 0.000000 0.000000 0.000000 17.669609 -3.624031 -30.310003 7.759274 3.962409 -16.151866 5.905924 3.094102 -11.219948 1.888250 0.333862 0.084760 0.000000 0.000000 0.000000 6.817732 3.012042 -10.729250 -0.528849 2.850830 -5.522905 -7.591848 17.892879 -4.674543 0.000000 0.000000 0.000000 6.411392 3.595341 -10.869811 0.189947 -3.331629 16.385059 -1.599640 -0.802974 -2.634512 -55.452895 -45.880986 -95.847799 4.324472 -59.474159 2.693501 0.000000 0.000000 0.000000 7.327840 3.143807 -11.348333 0.407287 -3.913310 -0.767391 7.125512 3.728562 -2.006387 -3.074220 60.917296 19.826752 -1.548192 76.434236 1.073645 0.000000 0.000000 0.000000 
1.699809 86.910141 -1.549213 0.000000 0.000000 0.000000 19.051112 -5.113387 -29.273176 -74.211972 -9.786693 23.733630 56.967842 -10.024874 7.901807 -5.467686 -2.602797 -4.461941 -2.476212 -0.002657 -0.705733 0.000000 0.000000 0.000000 19.448798 -3.629414 -30.774042 -33.751629 -30.229393 10.204548 34.828214 -9.903191 -0.257942 -5.075651 -8.184046 8.512720 -2.197478 1.251494 -2.386901 0.000000 0.000000 0.000000 17.724740 -3.933386 -29.725011 7.912075 3.834413 -15.811685 5.994080 3.003540 -11.038647 2.005913 0.620141 -0.219171 0.000000 0.000000 0.000000 6.724921 2.958325 -10.559642 0.749950 2.425878 -4.436643 -5.098590 17.759609 -3.392082 0.000000 0.000000 0.000000 6.546108 3.438363 -10.725852 -0.006018 -3.082826 16.900825 -1.122093 -0.715534 -2.331233 -54.557328 -45.796900 -95.035655 3.509117 -59.082502 2.229240 0.000000 0.000000 0.000000 7.462262 3.107115 -11.162900 0.467353 -3.328759 -1.509088 6.918619 3.702094 -1.783136 -3.627160 61.761965 21.383511 -1.382174 74.622986 0.905535 0.000000 0.000000 0.000000 
1.923758 87.011536 -1.625843 0.000000 0.000000 0.000000 19.081791 -5.532830 -28.537533 -74.214868 -8.992044 23.883693 57.005237 -10.033074 7.901890 -5.759856 -2.371907 -4.409148 -2.499107 -0.092700 -0.755307 0.000000 0.000000 0.000000 19.417898 -3.902742 -30.035139 -34.321694 -29.910057 9.722443 35.156097 -10.081350 -0.119395 -5.026261 -7.873654 8.323240 -1.852847 1.168115 -2.143137 0.000000 0.000000 0.000000 17.653539 -4.347000 -29.068080 8.119069 3.693769 -15.587692 6.021038 2.886064 -10.772632 2.079359 0.944868 -0.263378 0.000000 0.000000 0.000000 6.572548 2.868669 -10.301343 2.281907 2.124278 -3.283485 -2.685127 17.512511 -1.976789 0.000000 0.000000 0.000000 6.601666 3.252856 -10.526901 -0.201292 -2.873933 17.167728 -0.485410 -0.468945 -1.976636 -53.035507 -45.745872 -93.712265 3.192102 -58.621444 2.142443 0.000000 0.000000 0.000000 7.490304 3.057708 -10.885229 0.497032 -2.713175 -2.260629 6.602845 3.781792 -1.516241 -4.943325 62.095449 23.821639 -1.298698 72.574687 0.693506 0.000000 0.000000 0.000000 
2.101202 87.139320 -1.719635 0.000000 0.000000 0.000000 19.124668 -5.969652 -27.755678 -74.248978 -8.308816 24.117304 57.095986 -10.032855 7.857940 -5.628415 -2.214521 -4.506342 -2.750860 -0.192949 -0.752472 0.000000 0.000000 0.000000 19.415865 -4.087245 -29.273334 -34.932559 -29.554860 9.294622 35.447565 -10.327379 0.022640 -4.950586 -7.544536 8.118122 -1.666933 1.104955 -1.889241 0.000000 0.000000 0.000000 17.540880 -4.865306 -28.324883 8.362896 3.574277 -15.470862 6.031321 2.747654 -10.448834 2.067655 1.143059 -0.097784 0.000000 0.000000 0.000000 6.478768 2.762859 -9.992294 3.917197 2.007736 -2.156014 -0.676914 17.278826 -0.529436 0.000000 0.000000 0.000000 6.638080 3.071211 -10.312923 -0.370209 -2.752902 17.190164 0.141163 -0.185067 -1.626222 -51.053745 -46.006406 -91.757677 3.286114 -58.161841 2.350321 0.000000 0.000000 0.000000 7.461858 2.998109 -10.561700 0.509505 -2.105359 -2.901661 6.196827 3.837917 -1.207192 -6.470273 62.099212 26.462347 -1.220185 70.745959 0.422895 0.000000 0.000000 0.000000 
2.219202 87.309631 -1.860149 0.000000 0.000000 0.000000 19.184533 -6.441946 -26.879065 -74.310798 -7.687466 24.364284 57.225746 -9.927495 7.779805 -5.142262 -2.054398 -4.615443 -2.911329 -0.294625 -0.770497 0.000000 0.000000 0.000000 19.509759 -4.251044 -28.439222 -35.624580 -29.185146 8.916770 35.608078 -10.600145 0.107814 -4.778606 -7.203110 7.933234 -1.620316 1.063052 -1.657630 0.000000 0.000000 0.000000 17.499752 -5.465897 -27.495574 8.616728 3.498702 -15.412747 6.083702 2.625562 -10.120064 1.947231 0.991384 0.171554 0.000000 0.000000 0.000000 6.493843 2.663670 -9.691098 5.425796 2.109553 -1.165880 0.745654 17.162076 0.817430 0.000000 0.000000 0.000000 6.735670 2.915040 -10.144722 -0.462718 -2.710971 17.016744 0.549208 -0.013273 -1.199678 -48.859263 -46.685146 -89.257096 3.625676 -57.882302 2.735867 0.000000 0.000000 0.000000 7.466366 2.947684 -10.266323 0.554706 -1.586263 -3.318990 5.745374 3.693656 -1.003010 -7.789194 61.992354 28.836468 -1.115693 69.614237 0.182424 0.000000 0.000000 0.000000 
2.268029 87.487457 -2.068947 0.000000 0.000000 0.000000 19.287834 -6.917997 -25.867523 -74.312226 -7.028272 24.541017 57.191045 -9.642928 7.682033 -4.653773 -1.817167 -4.689706 -2.695411 -0.378373 -0.856584 0.000000 0.000000 0.000000 19.689823 -4.483770 -27.467582 -36.501081 -28.839982 8.529754 35.588561 -10.880792 0.101573 -4.496279 -6.851856 7.733794 -1.611944 1.033225 -1.479720 0.000000 0.000000 0.000000 17.540390 -6.143581 -26.541980 8.849543 3.479634 -15.346025 6.228095 2.553918 -9.832271 1.899913 0.553994 0.377953 0.000000 0.000000 0.000000 6.630149 2.603984 -9.450567 6.658089 2.389563 -0.411099 1.606155 17.228070 1.936726 0.000000 0.000000 0.000000 6.944346 2.805778 -10.061553 -0.468079 -2.749895 16.755948 0.737182 -0.124170 -0.747868 -46.558944 -47.472694 -86.423442 3.961189 -58.135059 3.117617 0.000000 0.000000 0.000000 7.582284 2.921408 -10.056897 0.620146 -1.219994 -3.531148 5.410303 3.561512 -0.930954 -8.451204 61.994731 30.457518 -0.945639 69.257107 0.022746 0.000000 0.000000 0.000000 
2.241626 87.669106 -2.389202 0.000000 0.000000 0.000000 19.417517 -7.364149 -24.729345 -74.146833 -6.284276 24.585751 56.776210 -9.196476 7.598826 -4.407322 -1.522582 -4.915714 -2.291246 -0.425593 -0.946241 0.000000 0.000000 0.000000 19.877657 -4.890799 -26.326139 -37.653508 -28.528085 8.111046 35.466304 -11.139617 -0.019002 -4.076785 -6.504051 7.500102 -1.578899 1.011497 -1.400613 0.000000 0.000000 0.000000 17.692922 -6.867020 -25.442948 9.062280 3.494982 -15.227692 6.464917 2.559946 -9.620925 1.892486 0.113604 0.394580 0.000000 0.000000 0.000000 6.861301 2.615523 -9.275166 7.574068 2.717798 0.057854 2.080641 17.431010 2.740327 0.000000 0.000000 0.000000 7.245523 2.783625 -10.064616 -0.367991 -2.827110 16.559696 0.758684 -0.467453 -0.462569 -44.549315 -47.949752 -83.778506 4.061657 -59.194634 3.335439 0.000000 0.000000 0.000000 7.838317 2.955264 -9.940984 0.742537 -1.008211 -3.557269 5.347645 3.478487 -1.098405 -8.469407 62.273471 31.345879 -0.656764 69.163144 -0.062010 0.000000 0.000000 0.000000 
2.128838 87.850967 -2.809525 0.000000 0.000000 0.000000 19.575206 -7.753369 -23.496841 -73.818588 -5.495583 24.457675 56.022458 -8.637116 7.593655 -4.334908 -1.198720 -5.493470 -2.008627 -0.432713 -0.976243 0.000000 0.000000 0.000000 20.061724 -5.453617 -25.028602 -39.113372 -28.244234 7.661398 35.345044 -11.354998 -0.252258 -3.524955 -6.138631 7.244177 -1.474835 0.993895 -1.437261 0.000000 0.000000 0.000000 17.938513 -7.634416 -24.196925 9.252804 3.508572 -15.018964 6.736809 2.647100 -9.459156 1.906889 -0.220246 0.366309 0.000000 0.000000 0.000000 7.084416 2.688669 -9.132921 8.187746 2.994957 0.260968 2.444559 17.727210 3.211935 0.000000 0.000000 0.000000 7.566624 2.851995 -10.078748 -0.162785 -2.890490 16.565893 0.691084 -0.958069 -0.510426 -43.196784 -47.730626 -81.891058 3.892295 -61.050375 3.348472 0.000000 0.000000 0.000000 8.176932 3.046401 -9.871568 0.895683 -0.919871 -3.403080 5.556548 3.405320 -1.410654 -7.921619 62.880648 31.545645 -0.265443 68.430381 -0.104279 0.000000 0.000000 0.000000 
1.905756 88.019272 -3.323975 0.000000 0.000000 0.000000 19.779248 -8.128463 -22.230866 -73.429731 -4.705563 24.239100 55.136760 -7.915047 7.657457 -4.230623 -0.853109 -6.412985 -1.893999 -0.405574 -0.944001 0.000000 0.000000 0.000000 20.221888 -6.208733 -23.621316 -40.813976 -27.910272 7.230241 35.242926 -11.455354 -0.615947 -2.956854 -5.695151 6.993842 -1.313238 0.974111 -1.604595 0.000000 0.000000 0.000000 18.240997 -8.445105 -22.843453 9.406970 3.501870 -14.707494 6.972290 2.782161 -9.287314 1.815108 -0.103005 0.201264 0.000000 0.000000 0.000000 7.231606 2.816193 -8.961649 8.559988 3.133915 0.262594 2.855493 17.991412 3.414557 0.000000 0.000000 0.000000 7.811513 3.011997 -10.006479 0.113347 -2.960329 16.810397 0.685276 -1.471149 -0.838879 -42.585195 -46.723381 -80.955268 3.508059 -63.335053 3.184811 0.000000 0.000000 0.000000 8.513194 3.176815 -9.779095 1.029416 -0.913342 -3.110554 6.011605 3.317275 -1.726024 -7.063406 63.815625 31.282495 0.203976 66.539443 -0.199000 0.000000 0.000000 0.000000 
1.587168 88.161545 -3.864212 0.000000 0.000000 0.000000 19.985176 -8.569613 -20.991658 -73.057944 -3.932639 24.057699 54.278291 -6.966783 7.753657 -3.955961 -0.460412 -7.528571 -1.846063 -0.344599 -0.871000 0.000000 0.000000 0.000000 20.377279 -7.103804 -22.197539 -42.551583 -27.456749 6.941495 35.163559 -11.408055 -1.139467 -2.566410 -5.135447 6.757662 -1.113009 0.958243 -1.858019 0.000000 0.000000 0.000000 18.583201 -9.364987 -21.458323 9.507864 3.457655 -14.294668 7.094661 2.936097 -9.043081 1.628353 0.396065 0.128322 0.000000 0.000000 0.000000 7.246552 2.969103 -8.700909 8.759772 3.085930 0.158979 3.399822 18.038258 3.448027 0.000000 0.000000 0.000000 7.911841 3.246898 -9.767194 0.454905 -3.105890 17.212864 0.731092 -2.241329 -1.381300 -42.243569 -45.393383 -80.655136 2.974762 -65.332057 2.875030 0.000000 0.000000 0.000000 8.735739 3.330590 -9.587065 1.133716 -0.941496 -2.675506 6.421525 2.995509 -2.021597 -6.302449 65.100924 30.905346 0.627057 63.692347 -0.342474 0.000000 0.000000 0.000000 
1.192993 88.268814 -4.405003 0.000000 0.000000 0.000000 20.241715 -9.153160 -19.786122 -72.745510 -3.202646 23.970257 53.530491 -5.702618 7.852912 -3.610771 0.037318 -8.593711 -1.650458 -0.261230 -0.837277 0.000000 0.000000 0.000000 20.556962 -8.087808 -20.799062 -44.100585 -26.840422 6.834711 35.072649 -11.183010 -1.858204 -2.445363 -4.440099 6.536362 -0.922565 0.947636 -2.135704 0.000000 0.000000 0.000000 18.919539 -10.445698 -20.085368 9.539968 3.395840 -13.797851 7.090547 3.070869 -8.676319 1.457333 0.873510 0.168409 0.000000 0.000000 0.000000 7.101632 3.119913 -8.321645 8.833518 2.887621 0.066412 3.986806 17.823208 3.393928 0.000000 0.000000 0.000000 7.859570 3.483393 -9.331013 0.768941 -3.371930 17.681440 0.860316 -2.998520 -2.180995 -41.552463 -44.449843 -80.454622 2.318640 -66.355500 2.434169 0.000000 0.000000 0.000000 8.775880 3.466155 -9.254222 1.169975 -0.959116 -2.140996 6.665845 2.533400 -2.247988 -5.844239 66.760537 30.650723 0.915554 60.666690 -0.555200 0.000000 0.000000 0.000000 
